<svg xmlns="http://www.w3.org/2000/svg" viewBox="1419 501.638 56.573 50">
  <defs>
    <style>
      .cls-1 {
        fill: #004087;
      }
    </style>
  </defs>
  <g id="Group_2" data-name="Group 2" transform="translate(472 -198)">
    <path id="Path_6" data-name="Path 6" class="cls-1" d="M51.31,952.4a5.278,5.278,0,0,1,5.263,5.263v26.313a5.278,5.278,0,0,1-5.263,5.263H45.39l1.184,11.709a1.388,1.388,0,0,1-.724,1.316,1.315,1.315,0,0,1-1.513-.263L31.576,989.238h-4.6v2.039a3.9,3.9,0,0,1-3.947,3.881H13.156L6.184,1002a1.3,1.3,0,0,1-1.513.2,1.326,1.326,0,0,1-.658-1.381L5,995.159H3.947A3.945,3.945,0,0,1,0,991.277V978.713a3.9,3.9,0,0,1,3.947-3.881H7.894v-17.1a5.278,5.278,0,0,1,5.263-5.263H51.31Zm0,2.631H13.156a2.558,2.558,0,0,0-2.631,2.631v26.313a2.558,2.558,0,0,0,2.631,2.631H32.1a1.3,1.3,0,0,1,.921.395l10.591,10.525-.987-9.473a1.392,1.392,0,0,1,1.316-1.447H51.31a2.558,2.558,0,0,0,2.631-2.631V957.663A2.558,2.558,0,0,0,51.31,955.031Zm-5.92,12.5a3.289,3.289,0,1,1-3.289,3.289A3.257,3.257,0,0,1,45.39,967.53Zm-13.156,0a3.289,3.289,0,1,1-3.289,3.289A3.257,3.257,0,0,1,32.233,967.53Zm-13.156,0a3.289,3.289,0,1,1-3.289,3.289A3.257,3.257,0,0,1,19.077,967.53ZM7.894,977.4H3.947a1.265,1.265,0,0,0-1.316,1.25v12.564a1.227,1.227,0,0,0,1.316,1.25H6.578a1.365,1.365,0,0,1,1.316,1.513l-.526,3.158,4.407-4.342a1.3,1.3,0,0,1,.921-.395H23.024a1.265,1.265,0,0,0,1.316-1.25v-2.039H13.156a5.278,5.278,0,0,1-5.263-5.263Z" transform="translate(947 -252.762)"/>
  </g>
</svg>
