<svg xmlns="http://www.w3.org/2000/svg" viewBox="782.5 504.402 51 48.091">
  <defs>
    <style>
      .cls-1 {
        fill: #004385;
        stroke: #004385;
      }
    </style>
  </defs>
  <path id="Path_80_1_" class="cls-1" d="M15.179,29.84l10.056,8.318h0Zm10.056,6.391-9.117-7.566ZM50,16.494v30.5H0v-30.5l5.31-3.477V4.605H18.092L25.141,0,32.1,4.605H44.643v8.318Zm-5.357,3.289,3.336-2.82-3.336-2.256ZM20.865,4.605H29.37l-4.229-2.82ZM6.814,20.959l9.3,7.707,9.07,7.566h0L43.139,20.959V6.109H6.814v14.85ZM2.068,16.964,5.4,19.737V14.756Zm46.429,1.6L25.235,38.2h0L15.179,29.887,1.5,18.515V45.489H48.449L48.5,18.562Zm-23.59,9.586a7.122,7.122,0,0,1-7.284-7.425c0-4.934,3.43-9.164,8.741-9.164a6.586,6.586,0,0,1,7,6.908c0,3.618-2.021,5.733-4.276,5.733A1.809,1.809,0,0,1,27.3,22.086h-.047A3.772,3.772,0,0,1,23.872,24.2a2.734,2.734,0,0,1-2.632-3.008,5.727,5.727,0,0,1,5.639-5.686h.047a5.847,5.847,0,0,1,2.538.517l-.846,4.323c-.329,1.833-.047,2.679.7,2.679,1.222,0,2.632-1.6,2.632-4.37,0-3.477-2.068-5.968-5.78-5.968-3.9,0-7.143,3.1-7.143,7.942,0,3.994,2.632,6.438,6.156,6.438a6.968,6.968,0,0,0,3.618-.846l.376,1.034A9.1,9.1,0,0,1,24.906,28.148ZM27.82,16.87a9.509,9.509,0,0,0-1.222-.188,4.173,4.173,0,0,0-3.853,4.323c0,1.034.517,1.833,1.551,1.833,1.41,0,2.679-1.786,2.961-3.289Z" transform="translate(783 505)"/>
</svg>
