<svg xmlns="http://www.w3.org/2000/svg" viewBox="473 505 50 50">
  <defs>
    <style>
      .cls-1 {
        fill: #004087;
      }
    </style>
  </defs>
  <g id="Group_4" data-name="Group 4" transform="translate(-489 -205)">
    <path id="Path_9" data-name="Path 9" class="cls-1" d="M15.625,50A.939.939,0,0,1,15,49.844a1.5,1.5,0,0,1-.938-1.406V37.5H3.906A3.868,3.868,0,0,1,0,33.594V3.906A3.868,3.868,0,0,1,3.906,0H46.094A3.868,3.868,0,0,1,50,3.906V33.594A3.868,3.868,0,0,1,46.094,37.5H31.875L16.719,49.688A3.975,3.975,0,0,1,15.625,50ZM3.906,3.125a.738.738,0,0,0-.781.781V33.594a.738.738,0,0,0,.781.781H15.625a1.476,1.476,0,0,1,1.563,1.563v9.219L30.313,34.688a2.221,2.221,0,0,1,.938-.312H46.094a.738.738,0,0,0,.781-.781V3.906a.738.738,0,0,0-.781-.781Z" transform="translate(962 710)"/>
    <circle id="Ellipse_2" data-name="Ellipse 2" class="cls-1" cx="1.563" cy="1.563" r="1.563" transform="translate(985.281 735)"/>
    <path id="Path_10" data-name="Path 10" class="cls-1" d="M18.129,20.063A1.476,1.476,0,0,1,16.566,18.5c0-2.031,1.875-3.594,3.594-5a2.543,2.543,0,0,0,.781-2.812c-.156-.938-1.562-1.562-2.656-1.562h0A3.445,3.445,0,0,0,15,11.312a1.582,1.582,0,0,1-2.969-1.094A6.44,6.44,0,0,1,18.285,6h0c2.188,0,5,1.25,5.781,3.906a5.882,5.882,0,0,1-2.031,6.25C20,17.563,19.691,18.344,19.691,18.5A1.476,1.476,0,0,1,18.129,20.063Z" transform="translate(968.715 713.375)"/>
  </g>
</svg>
